<svg xmlns="http://www.w3.org/2000/svg" viewBox="0 0 512 512" fill="none" role="img" aria-labelledby="title desc">
  <title id="title">Meridian bot avatar</title>
  <desc id="desc">The Seam Exchange mark inside a live routing instrument.</desc>
  <rect width="512" height="512" rx="112" fill="#111411"/>
  <circle cx="256" cy="256" r="190" fill="#171B18" stroke="#303832" stroke-width="6"/>
  <path d="M102 192A168 168 0 0 1 201 102" stroke="#303832" stroke-width="8" stroke-linecap="round"/>
  <path d="M410 320A168 168 0 0 1 311 410" stroke="#303832" stroke-width="8" stroke-linecap="round"/>
  <g transform="translate(88 88) scale(14)">
    <path d="M3 6H6.75C8.3 6 9 8.4 10.125 9.75 M13.875 14.25C15 15.6 15.7 18 17.25 18H21" stroke="#5B82FF" stroke-width="2.25" stroke-linecap="round" stroke-linejoin="round"/>
    <path d="M3 18H6.75C8.3 18 9 15.6 10.125 14.25 M13.875 9.75C15 8.4 15.7 6 17.25 6H21" stroke="#F07955" stroke-width="2.25" stroke-linecap="round" stroke-linejoin="round"/>
  </g>
  <circle cx="401" cy="111" r="20" fill="#72C89E" stroke="#111411" stroke-width="8"/>
</svg>
