<svg xmlns="http://www.w3.org/2000/svg" viewBox="0 0 512 512" fill="none">
  <defs>
    <linearGradient id="mGrad" x1="256" y1="40" x2="256" y2="472" gradientUnits="userSpaceOnUse">
      <stop stop-color="#58a6ff"/>
      <stop offset="1" stop-color="#bc8cff"/>
    </linearGradient>
    <linearGradient id="chestGrad" x1="256" y1="360" x2="256" y2="448" gradientUnits="userSpaceOnUse">
      <stop stop-color="#58a6ff"/>
      <stop offset="1" stop-color="#bc8cff"/>
    </linearGradient>
  </defs>
  <rect width="512" height="512" rx="112" fill="#0d1117"/>

  <!-- Antenna -->
  <line x1="256" y1="72" x2="256" y2="115" stroke="#58a6ff" stroke-width="8" stroke-linecap="round"/>
  <circle cx="256" cy="64" r="14" fill="#58a6ff"/>
  <!-- Antenna signal arcs -->
  <path d="M228 52 A32 32 0 0 1 284 52" fill="none" stroke="#58a6ff" stroke-width="3" opacity="0.4" stroke-linecap="round"/>
  <path d="M216 40 A44 44 0 0 1 296 40" fill="none" stroke="#58a6ff" stroke-width="2.5" opacity="0.25" stroke-linecap="round"/>

  <!-- Robot head -->
  <rect x="128" y="115" width="256" height="200" rx="40" fill="#161b22"/>
  <rect x="128" y="115" width="256" height="200" rx="40" fill="none" stroke="url(#mGrad)" stroke-width="4"/>

  <!-- Eyes — screens with a friendly glow -->
  <rect x="170" y="165" width="68" height="52" rx="14" fill="#0d1117" stroke="#58a6ff" stroke-width="3"/>
  <rect x="274" y="165" width="68" height="52" rx="14" fill="#0d1117" stroke="#58a6ff" stroke-width="3"/>
  <!-- Eye glow -->
  <circle cx="204" cy="191" r="16" fill="#58a6ff" opacity="0.85"/>
  <circle cx="308" cy="191" r="16" fill="#58a6ff" opacity="0.85"/>
  <!-- Eye highlights -->
  <circle cx="210" cy="185" r="5" fill="#bc8cff" opacity="0.7"/>
  <circle cx="314" cy="185" r="5" fill="#bc8cff" opacity="0.7"/>

  <!-- Mouth — friendly LED strip -->
  <rect x="196" y="248" width="120" height="24" rx="12" fill="#0d1117" stroke="#58a6ff" stroke-width="2"/>
  <circle cx="220" cy="260" r="5" fill="#58a6ff" opacity="0.7"/>
  <circle cx="244" cy="260" r="5" fill="#bc8cff"/>
  <circle cx="268" cy="260" r="5" fill="#58a6ff" opacity="0.7"/>
  <circle cx="292" cy="260" r="5" fill="#bc8cff" opacity="0.5"/>

  <!-- Ear bolts -->
  <circle cx="118" cy="200" r="16" fill="#161b22" stroke="#58a6ff" stroke-width="3"/>
  <circle cx="118" cy="200" r="6" fill="#58a6ff"/>
  <circle cx="394" cy="200" r="16" fill="#161b22" stroke="#bc8cff" stroke-width="3"/>
  <circle cx="394" cy="200" r="6" fill="#bc8cff"/>

  <!-- Neck -->
  <rect x="228" y="315" width="56" height="28" rx="6" fill="#161b22" stroke="#58a6ff" stroke-width="2"/>

  <!-- Body / chest plate -->
  <rect x="148" y="343" width="216" height="120" rx="30" fill="#161b22" stroke="url(#mGrad)" stroke-width="4"/>

  <!-- Meridian mark on chest — the gradient globe -->
  <circle cx="256" cy="404" r="40" stroke="url(#chestGrad)" stroke-width="6"/>
  <ellipse cx="256" cy="404" rx="17" ry="40" stroke="url(#chestGrad)" stroke-width="4" opacity="0.8"/>
  <path d="M216 404h80" stroke="url(#chestGrad)" stroke-width="3.5" opacity="0.4"/>
  <circle cx="256" cy="364" r="7" fill="#58a6ff"/>
  <circle cx="256" cy="444" r="7" fill="#bc8cff"/>
</svg>
